{
  "accessors": [
    {
      "bufferView": 2,
      "componentType": 5126,
      "count": 296,
      "max": [
        1.3613929748535156,
        -1.576704978942871,
        0.5491170287132263
      ],
      "min": [
        0.24383500218391418,
        -1.802299976348877,
        -0.5684409737586975
      ],
      "type": "VEC3"
    },
    {
      "bufferView": 2,
      "byteOffset": 3552,
      "componentType": 5126,
      "count": 296,
      "max": [
        0.9715090990066528,
        -0.2370016723871231,
        0.9715090990066528
      ],
      "min": [
        -0.9715090990066528,
        -1.0,
        -0.9715090990066528
      ],
      "type": "VEC3"
    },
    {
      "bufferView": 1,
      "componentType": 5126,
      "count": 296,
      "max": [
        1.0,
        1.0
      ],
      "min": [
        0.0,
        0.5
      ],
      "type": "VEC2"
    },
    {
      "bufferView": 0,
      "componentType": 5125,
      "count": 1440,
      "type": "SCALAR"
    },
    {
      "bufferView": 2,
      "byteOffset": 7104,
      "componentType": 5126,
      "count": 1252,
      "max": [
        0.438944011926651,
        1.5648210048675537,
        0.47292599081993103
      ],
      "min": [
        0.22878800332546234,
        1.4830139875411987,
        0.37145501375198364
      ],
      "type": "VEC3"
    },
    {
      "bufferView": 2,
      "byteOffset": 22128,
      "componentType": 5126,
      "count": 1252,
      "max": [
        0.9999620914459229,
        1.0,
        0.9999958276748657
      ],
      "min": [
        -0.9996688961982727,
        -0.006500092335045338,
        -0.9999958276748657
      ],
      "type": "VEC3"
    },
    {
      "bufferView": 1,
      "byteOffset": 2368,
      "componentType": 5126,
      "count": 1252,
      "max": [
        1.0,
        0.992805004119873
      ],
      "min": [
        -0.0,
        0.5
      ],
      "type": "VEC2"
    },
    {
      "bufferView": 0,
      "byteOffset": 5760,
      "componentType": 5125,
      "count": 2736,
      "type": "SCALAR"
    },
    {
      "bufferView": 2,
      "byteOffset": 37152,
      "componentType": 5126,
      "count": 160,
      "max": [
        0.8309370279312134,
        -1.4918149709701538,
        0.018662000074982643
      ],
      "min": [
        0.7742900252342224,
        -1.5041630268096924,
        -0.037985000759363174
      ],
      "type": "VEC3"
    },
    {
      "bufferView": 2,
      "byteOffset": 39072,
      "componentType": 5126,
      "count": 160,
      "max": [
        0.9236204028129578,
        -0.38320592045783997,
        0.9236204028129578
      ],
      "min": [
        -0.9236558675765991,
        -1.0,
        -0.9236204028129578
      ],
      "type": "VEC3"
    },
    {
      "bufferView": 1,
      "byteOffset": 12384,
      "componentType": 5126,
      "count": 160,
      "max": [
        0.26010099053382874,
        0.26010099053382874
      ],
      "min": [
        0.23989899456501007,
        0.23989899456501007
      ],
      "type": "VEC2"
    },
    {
      "bufferView": 0,
      "byteOffset": 16704,
      "componentType": 5125,
      "count": 672,
      "type": "SCALAR"
    },
    {
      "bufferView": 2,
      "byteOffset": 40992,
      "componentType": 5126,
      "count": 193,
      "max": [
        0.003751999931409955,
        1.4892510175704956,
        0.4645110070705414
      ],
      "min": [
        -0.08215499669313431,
        1.404899001121521,
        0.378603994846344
      ],
      "type": "VEC3"
    },
    {
      "bufferView": 2,
      "byteOffset": 43308,
      "componentType": 5126,
      "count": 193,
      "max": [
        0.9504570960998535,
        1.0,
        0.9504570960998535
      ],
      "min": [
        -0.9504570960998535,
        0.3102017045021057,
        -0.9504570960998535
      ],
      "type": "VEC3"
    },
    {
      "bufferView": 0,
      "byteOffset": 19392,
      "componentType": 5125,
      "count": 1008,
      "type": "SCALAR"
    },
    {
      "bufferView": 2,
      "byteOffset": 45624,
      "componentType": 5126,
      "count": 1958,
      "max": [
        1.0900050401687622,
        1.4950640201568604,
        0.47464001178741455
      ],
      "min": [
        -0.3002319931983948,
        1.3214139938354492,
        0.19117599725723267
      ],
      "type": "VEC3"
    },
    {
      "bufferView": 2,
      "byteOffset": 69120,
      "componentType": 5126,
      "count": 1958,
      "max": [
        1.0,
        1.0,
        1.0
      ],
      "min": [
        -1.0,
        -0.9999994039535522,
        -1.0
      ],
      "type": "VEC3"
    },
    {
      "bufferView": 0,
      "byteOffset": 23424,
      "componentType": 5125,
      "count": 9306,
      "type": "SCALAR"
    },
    {
      "bufferView": 2,
      "byteOffset": 92616,
      "componentType": 5126,
      "count": 2009,
      "max": [
        1.8075840473175049,
        1.6488499641418457,
        0.6328549981117249
      ],
      "min": [
        0.16009700298309326,
        -1.7188860177993774,
        -0.6521790027618408
      ],
      "type": "VEC3"
    },
    {
      "bufferView": 2,
      "byteOffset": 116724,
      "componentType": 5126,
      "count": 2009,
      "max": [
        1.0,
        1.0,
        1.0
      ],
      "min": [
        -1.0,
        -1.0,
        -1.0
      ],
      "type": "VEC3"
    },
    {
      "bufferView": 1,
      "byteOffset": 13664,
      "componentType": 5126,
      "count": 2009,
      "max": [
        1.0,
        1.0
      ],
      "min": [
        -0.0,
        0.0
      ],
      "type": "VEC2"
    },
    {
      "bufferView": 0,
      "byteOffset": 60648,
      "componentType": 5125,
      "count": 5022,
      "type": "SCALAR"
    },
    {
      "bufferView": 2,
      "byteOffset": 140832,
      "componentType": 5126,
      "count": 744,
      "max": [
        1.0797059535980225,
        1.4678750038146973,
        0.4642829895019531
      ],
      "min": [
        0.6681410074234009,
        1.319916009902954,
        0.3598249852657318
      ],
      "type": "VEC3"
    },
    {
      "bufferView": 2,
      "byteOffset": 149760,
      "componentType": 5126,
      "count": 744,
      "max": [
        1.0,
        0.9999994039535522,
        1.0
      ],
      "min": [
        -1.0,
        -0.9999994039535522,
        -1.0
      ],
      "type": "VEC3"
    },
    {
      "bufferView": 0,
      "byteOffset": 80736,
      "componentType": 5125,
      "count": 1212,
      "type": "SCALAR"
    },
    {
      "bufferView": 2,
      "byteOffset": 158688,
      "componentType": 5126,
      "count": 7271,
      "max": [
        1.1202130317687988,
        1.495089054107666,
        0.49576500058174133
      ],
      "min": [
        -0.09941300004720688,
        1.3135950565338135,
        0.3189539909362793
      ],
      "type": "VEC3"
    },
    {
      "bufferView": 2,
      "byteOffset": 245940,
      "componentType": 5126,
      "count": 7271,
      "max": [
        1.0,
        0.9999998807907104,
        1.0
      ],
      "min": [
        -1.0,
        -0.9999994039535522,
        -1.0
      ],
      "type": "VEC3"
    },
    {
      "bufferView": 0,
      "byteOffset": 85584,
      "componentType": 5125,
      "count": 34920,
      "type": "SCALAR"
    },
    {
      "bufferView": 2,
      "byteOffset": 333192,
      "componentType": 5126,
      "count": 7805,
      "max": [
        1.0684399604797363,
        1.5576989650726318,
        0.45810800790786743
      ],
      "min": [
        0.12125000357627869,
        1.430359959602356,
        0.1074799969792366
      ],
      "type": "VEC3"
    },
    {
      "bufferView": 2,
      "byteOffset": 426852,
      "componentType": 5126,
      "count": 7805,
      "max": [
        0.9999352693557739,
        0.9999998807907104,
        0.9996748566627502
      ],
      "min": [
        -0.9999842643737793,
        -0.9999957084655762,
        -0.9999985694885254
      ],
      "type": "VEC3"
    },
    {
      "bufferView": 1,
      "byteOffset": 29736,
      "componentType": 5126,
      "count": 7805,
      "max": [
        0.9861990213394165,
        0.9994879961013794
      ],
      "min": [
        0.21501600742340088,
        0.02929599955677986
      ],
      "type": "VEC2"
    },
    {
      "bufferView": 0,
      "byteOffset": 225264,
      "componentType": 5125,
      "count": 16095,
      "type": "SCALAR"
    },
    {
      "bufferView": 2,
      "byteOffset": 520512,
      "componentType": 5126,
      "count": 5251,
      "max": [
        1.690276026725769,
        1.6377170085906982,
        0.5159779787063599
      ],
      "min": [
        0.11292000114917755,
        1.4181269407272339,
        -0.4509899914264679
      ],
      "type": "VEC3"
    },
    {
      "bufferView": 2,
      "byteOffset": 583524,
      "componentType": 5126,
      "count": 5251,
      "max": [
        1.0,
        1.0,
        1.0
      ],
      "min": [
        -1.0,
        -0.9985509514808655,
        -1.0
      ],
      "type": "VEC3"
    },
    {
      "bufferView": 1,
      "byteOffset": 92176,
      "componentType": 5126,
      "count": 5251,
      "max": [
        1.0,
        1.0
      ],
      "min": [
        0.0,
        0.0
      ],
      "type": "VEC2"
    },
    {
      "bufferView": 0,
      "byteOffset": 289644,
      "componentType": 5125,
      "count": 13161,
      "type": "SCALAR"
    },
    {
      "bufferView": 2,
      "byteOffset": 646536,
      "componentType": 5126,
      "count": 6737,
      "max": [
        2.2985548973083496,
        1.696545958518982,
        0.7379850149154663
      ],
      "min": [
        -2.1690421104431152,
        -1.7188860177993774,
        -0.8596410155296326
      ],
      "type": "VEC3"
    },
    {
      "bufferView": 2,
      "byteOffset": 727380,
      "componentType": 5126,
      "count": 6737,
      "max": [
        1.0,
        1.0,
        1.0
      ],
      "min": [
        -1.0,
        -1.0,
        -1.0
      ],
      "type": "VEC3"
    },
    {
      "bufferView": 1,
      "byteOffset": 134184,
      "componentType": 5126,
      "count": 6737,
      "max": [
        1.0,
        1.0
      ],
      "min": [
        0.0,
        0.0
      ],
      "type": "VEC2"
    },
    {
      "bufferView": 0,
      "byteOffset": 342288,
      "componentType": 5125,
      "count": 19620,
      "type": "SCALAR"
    }
  ],
  "asset": {
    "extras": {
      "author": "assetfactory (https://sketchfab.com/assetfactory)",
      "license": "SKETCHFAB Standard (https://sketchfab.com/licenses)",
      "source": "https://sketchfab.com/3d-models/generic-white-digital-projector-0a314ba660ee405db0df4e0c422fcd12",
      "title": "Generic white digital Projector"
    },
    "generator": "Sketchfab-16.33.0",
    "version": "2.0"
  },
  "bufferViews": [
    {
      "buffer": 0,
      "byteLength": 420768,
      "name": "floatBufferViews",
      "target": 34963
    },
    {
      "buffer": 0,
      "byteLength": 188080,
      "byteOffset": 420768,
      "byteStride": 8,
      "name": "floatBufferViews",
      "target": 34962
    },
    {
      "buffer": 0,
      "byteLength": 808224,
      "byteOffset": 608848,
      "byteStride": 12,
      "name": "floatBufferViews",
      "target": 34962
    }
  ],
  "buffers": [
    {
      "byteLength": 1417072,
      "uri": "scene.bin"
    }
  ],
  "materials": [
    {
      "doubleSided": true,
      "name": "BlackPlastic",
      "pbrMetallicRoughness": {
        "baseColorFactor": [
          0.008959033215757944,
          0.008959033215757944,
          0.008959033215757944,
          1.0
        ],
        "metallicFactor": 0.0,
        "roughnessFactor": 0.18392094094287395
      }
    },
    {
      "doubleSided": true,
      "name": "BluePlastic",
      "pbrMetallicRoughness": {
        "baseColorFactor": [
          0.04667864869548839,
          0.060113159805995395,
          0.290387141204943,
          1.0
        ],
        "metallicFactor": 0.0,
        "roughnessFactor": 0.259289777185235
      }
    },
    {
      "doubleSided": true,
      "name": "Copper",
      "pbrMetallicRoughness": {
        "baseColorFactor": [
          0.4658348552926145,
          0.21636740709298327,
          0.02540526329242582,
          1.0
        ],
        "metallicFactor": 0.5230807040334987,
        "roughnessFactor": 0.2530090408317049
      }
    },
    {
      "alphaMode": "BLEND",
      "doubleSided": true,
      "name": "Glass",
      "pbrMetallicRoughness": {
        "baseColorFactor": [
          1.0,
          1.0,
          1.0,
          0.06458695022580228
        ],
        "roughnessFactor": 0.008060323044031495
      }
    },
    {
      "doubleSided": true,
      "name": "Lens",
      "pbrMetallicRoughness": {
        "baseColorFactor": [
          0.26651984652910465,
          0.26651984652910465,
          0.26651984652910465,
          1.0
        ],
        "roughnessFactor": 0.0
      }
    },
    {
      "doubleSided": true,
      "name": "Metal",
      "pbrMetallicRoughness": {
        "baseColorFactor": [
          0.1902856685580007,
          0.1902856685580007,
          0.1902856685580007,
          1.0
        ],
        "roughnessFactor": 0.1964824136499341
      }
    },
    {
      "doubleSided": true,
      "name": "WhitePlastic",
      "pbrMetallicRoughness": {
        "baseColorFactor": [
          0.5757194013916181,
          0.5757194013916181,
          0.5757194013916181,
          1.0
        ],
        "metallicFactor": 0.0,
        "roughnessFactor": 0.2027631500034642
      }
    },
    {
      "doubleSided": true,
      "name": "YellowPlastic",
      "pbrMetallicRoughness": {
        "baseColorFactor": [
          0.9213560469775339,
          0.7820670517854358,
          0.06064634121372889,
          1.0
        ],
        "metallicFactor": 0.0,
        "roughnessFactor": 0.6
      }
    }
  ],
  "meshes": [
    {
      "name": "Object_0",
      "primitives": [
        {
          "attributes": {
            "NORMAL": 1,
            "POSITION": 0,
            "TEXCOORD_0": 2
          },
          "indices": 3,
          "material": 3,
          "mode": 4
        }
      ]
    },
    {
      "name": "Object_1",
      "primitives": [
        {
          "attributes": {
            "NORMAL": 5,
            "POSITION": 4,
            "TEXCOORD_0": 6
          },
          "indices": 7,
          "material": 1,
          "mode": 4
        }
      ]
    },
    {
      "name": "Object_2",
      "primitives": [
        {
          "attributes": {
            "NORMAL": 9,
            "POSITION": 8,
            "TEXCOORD_0": 10
          },
          "indices": 11,
          "material": 4,
          "mode": 4
        }
      ]
    },
    {
      "name": "Object_3",
      "primitives": [
        {
          "attributes": {
            "NORMAL": 13,
            "POSITION": 12
          },
          "indices": 14,
          "material": 7,
          "mode": 4
        }
      ]
    },
    {
      "name": "Object_4",
      "primitives": [
        {
          "attributes": {
            "NORMAL": 16,
            "POSITION": 15
          },
          "indices": 17,
          "material": 0,
          "mode": 4
        }
      ]
    },
    {
      "name": "Object_5",
      "primitives": [
        {
          "attributes": {
            "NORMAL": 19,
            "POSITION": 18,
            "TEXCOORD_0": 20
          },
          "indices": 21,
          "material": 0,
          "mode": 4
        }
      ]
    },
    {
      "name": "Object_6",
      "primitives": [
        {
          "attributes": {
            "NORMAL": 23,
            "POSITION": 22
          },
          "indices": 24,
          "material": 2,
          "mode": 4
        }
      ]
    },
    {
      "name": "Object_7",
      "primitives": [
        {
          "attributes": {
            "NORMAL": 26,
            "POSITION": 25
          },
          "indices": 27,
          "material": 5,
          "mode": 4
        }
      ]
    },
    {
      "name": "Object_8",
      "primitives": [
        {
          "attributes": {
            "NORMAL": 29,
            "POSITION": 28,
            "TEXCOORD_0": 30
          },
          "indices": 31,
          "material": 5,
          "mode": 4
        }
      ]
    },
    {
      "name": "Object_9",
      "primitives": [
        {
          "attributes": {
            "NORMAL": 33,
            "POSITION": 32,
            "TEXCOORD_0": 34
          },
          "indices": 35,
          "material": 5,
          "mode": 4
        }
      ]
    },
    {
      "name": "Object_10",
      "primitives": [
        {
          "attributes": {
            "NORMAL": 37,
            "POSITION": 36,
            "TEXCOORD_0": 38
          },
          "indices": 39,
          "material": 6,
          "mode": 4
        }
      ]
    }
  ],
  "nodes": [
    {
      "children": [
        1
      ],
      "matrix": [
        1.0,
        0.0,
        0.0,
        0.0,
        0.0,
        2.220446049250313e-16,
        -1.0,
        0.0,
        0.0,
        1.0,
        2.220446049250313e-16,
        0.0,
        0.0,
        0.0,
        0.0,
        1.0
      ],
      "name": "Sketchfab_model"
    },
    {
      "children": [
        2,
        3,
        4,
        5,
        6,
        7,
        8,
        9,
        10,
        11,
        12
      ],
      "name": "Projector.obj.cleaner.materialmerger.gles"
    },
    {
      "mesh": 0,
      "name": "Object_2"
    },
    {
      "mesh": 1,
      "name": "Object_3"
    },
    {
      "mesh": 2,
      "name": "Object_4"
    },
    {
      "mesh": 3,
      "name": "Object_5"
    },
    {
      "mesh": 4,
      "name": "Object_6"
    },
    {
      "mesh": 5,
      "name": "Object_7"
    },
    {
      "mesh": 6,
      "name": "Object_8"
    },
    {
      "mesh": 7,
      "name": "Object_9"
    },
    {
      "mesh": 8,
      "name": "Object_10"
    },
    {
      "mesh": 9,
      "name": "Object_11"
    },
    {
      "mesh": 10,
      "name": "Object_12"
    }
  ],
  "scene": 0,
  "scenes": [
    {
      "name": "Sketchfab_Scene",
      "nodes": [
        0
      ]
    }
  ]
}
